<?xml version="1.0" encoding="iso-8859-1"?>
<!-- Generator: Adobe Illustrator 21.0.0, SVG Export Plug-In . SVG Version: 6.00 Build 0)  -->
<svg version="1.1" id="Capa_1" xmlns="http://www.w3.org/2000/svg" xmlns:xlink="http://www.w3.org/1999/xlink" x="0px" y="0px"
	 viewBox="0 0 512 512" style="enable-background:new 0 0 512 512;" xml:space="preserve">
<g id="XMLID_877_">
	<g id="XMLID_878_">
		<path style="fill:#4FCEB7;" d="M345.953,388.43v113.268c0,5.69-4.612,10.302-10.302,10.302H76.612
			c-5.69,0-10.302-4.612-10.302-10.302V388.43c0-36.618,29.685-66.302,66.302-66.302h147.038
			C316.263,322.127,345.953,351.807,345.953,388.43z"/>
		<rect x="158.385" y="322.123" style="fill:#EBEEF2;" width="98.665" height="189.877"/>
		<path style="fill:#3DB4A0;" d="M345.948,388.416v113.28c0,5.69-4.612,10.302-10.302,10.302h-12.29v-123.57
			c0-36.613-29.693-66.306-66.306-66.306h22.604C316.267,322.123,345.948,351.803,345.948,388.416z"/>
		<g id="XMLID_879_">
			<path style="fill:#E39F6E;" d="M207.718,359.457L207.718,359.457c-12.482,0-22.6-10.118-22.6-22.6v-63.397h45.2v63.397
				C230.317,349.339,220.199,359.457,207.718,359.457z"/>
			<path style="fill:#EB5777;" d="M88.155,185.053H327.28l6.307-30.763C349.92,74.614,289.051,0,207.718,0h0
				C126.384,0,65.515,74.614,81.848,154.29L88.155,185.053z"/>
			<g id="XMLID_880_">
				<g id="XMLID_881_">
					<circle style="fill:#E39F6E;" cx="310.19" cy="197.095" r="30.428"/>
				</g>
				<g id="XMLID_882_">
					<circle style="fill:#E39F6E;" cx="105.245" cy="197.095" r="30.428"/>
				</g>
			</g>
			<path style="fill:#F8C298;" d="M207.718,299.007L207.718,299.007c-41.362,0-76.25-30.801-81.376-71.844l-15.137-121.183h193.027
				l-15.137,121.183C283.967,268.206,249.079,299.007,207.718,299.007z"/>
			<g id="XMLID_883_">
				<path style="fill:#AA5B26;" d="M163.174,203.078c-4.17,0-7.605-3.321-7.719-7.515l-0.132-4.823
					c-0.117-4.266,3.247-7.818,7.512-7.935c4.266-0.126,7.818,3.246,7.935,7.512l0.132,4.823c0.117,4.266-3.247,7.818-7.512,7.935
					C163.317,203.077,163.245,203.078,163.174,203.078z"/>
				<path style="fill:#AA5B26;" d="M252.385,203.078c-4.17,0-7.605-3.321-7.719-7.515l-0.132-4.823
					c-0.117-4.266,3.247-7.818,7.512-7.935c4.264-0.126,7.818,3.246,7.935,7.512l0.132,4.823c0.117,4.266-3.247,7.818-7.512,7.935
					C252.529,203.077,252.457,203.078,252.385,203.078z"/>
			</g>
			<path style="fill:#E39F6E;" d="M207.718,245.824c-13.163,0-25.639-6.377-33.374-17.058c-2.503-3.456-1.73-8.287,1.726-10.79
				c3.457-2.503,8.287-1.728,10.79,1.726c4.838,6.681,12.635,10.669,20.858,10.669s16.021-3.988,20.858-10.669
				c2.503-3.455,7.332-4.229,10.79-1.726c3.456,2.503,4.229,7.333,1.726,10.79C233.357,239.447,220.881,245.824,207.718,245.824z"/>
		</g>
		<g id="XMLID_884_">
			<path style="fill:#3DB4A0;" d="M128.039,408.498V512h-15.453V408.498c0-4.265,3.461-7.726,7.726-7.726
				C124.578,400.771,128.039,404.233,128.039,408.498z"/>
			<path style="fill:#3DB4A0;" d="M299.667,408.498V512h-15.453V408.498c0-4.265,3.461-7.726,7.726-7.726
				C296.216,400.771,299.667,404.233,299.667,408.498z"/>
		</g>
	</g>
	<path style="fill:#EB5777;" d="M94.054,114.357c0,0,20.409,20.243,75.363,21.715c3.482,0.093,6.365-2.698,6.365-6.182v-8.157
		c0,0,19.971,13.106,62.293,14.331c3.49,0.101,6.386-2.689,6.386-6.181v-4.627c0,0,16.465,10.05,65.813,10.849
		c3.457,0.056,6.3-2.724,6.3-6.182V95.635H94.054V114.357z"/>
	<path style="fill:#CE3F63;" d="M310.381,143.832c-0.077,0-0.155-0.001-0.233-0.002c-30.654-0.496-49.22-4.457-59.429-7.711
		c-0.69,1.369-1.612,2.629-2.747,3.732c-2.725,2.648-6.325,4.05-10.121,3.936c-26.086-0.755-44.233-5.89-54.872-10.068
		c-0.655,2.303-1.904,4.405-3.672,6.126c-2.721,2.648-6.305,4.054-10.115,3.949c-35.074-0.942-57.037-9.255-69.286-16.062
		c-3.73-2.073-5.073-6.777-3-10.507c2.074-3.729,6.778-5.071,10.507-3c10.564,5.872,29.616,13.027,60.643,14.075v-6.567
		c0-2.84,1.557-5.45,4.056-6.799c2.499-1.35,5.536-1.218,7.909,0.339c0.147,0.094,18.597,11.618,56.713,13.016v-3.033
		c0-2.832,1.459-5.494,3.948-6.847c2.473-1.343,5.389-1.29,7.757,0.221c0.961,0.52,17.041,8.83,60.408,9.72v-13.994
		c0-4.267,3.459-7.726,7.726-7.726s7.726,3.459,7.726,7.726v15.567c0,3.755-1.475,7.274-4.153,9.908
		C317.519,142.417,314.059,143.832,310.381,143.832z"/>
	<g id="XMLID_885_">
		<circle style="fill:#5F9EEB;" cx="363.744" cy="330.828" r="81.945"/>
		<g id="XMLID_886_">
			<path style="fill:#EBEEF2;" d="M397.997,315.454h-18.879v-18.879c0-5.69-4.612-10.302-10.302-10.302h-10.144
				c-5.69,0-10.302,4.612-10.302,10.302v18.879h-18.879c-5.69,0-10.302,4.612-10.302,10.302V335.9
				c0,5.69,4.612,10.302,10.302,10.302h18.879v18.879c0,5.69,4.612,10.302,10.302,10.302h10.144c5.69,0,10.302-4.612,10.302-10.302
				v-18.879h18.879c5.69,0,10.302-4.612,10.302-10.302v-10.144C408.298,320.066,403.686,315.454,397.997,315.454z"/>
		</g>
	</g>
</g>
<g>
</g>
<g>
</g>
<g>
</g>
<g>
</g>
<g>
</g>
<g>
</g>
<g>
</g>
<g>
</g>
<g>
</g>
<g>
</g>
<g>
</g>
<g>
</g>
<g>
</g>
<g>
</g>
<g>
</g>
</svg>
