<?xml version="1.0" encoding="UTF-8" standalone="no"?> <svg xmlns="http://www.w3.org/2000/svg" viewBox="0 0 64 64"><defs><style>.cls-1{fill:#fff800;stroke:#fff800;}.cls-1,.cls-10,.cls-11,.cls-13,.cls-14,.cls-2,.cls-3,.cls-6,.cls-7,.cls-8{stroke-linecap:round;stroke-linejoin:round;stroke-width:2px;}.cls-2{fill:#5b3b63;stroke:#5b3b63;opacity:0.1;}.cls-3,.cls-6{fill:none;stroke:#54596e;}.cls-4{fill:#ffd578;}.cls-5{fill:#54596e;}.cls-6{stroke-dasharray:4 4;}.cls-7{fill:#45d821;stroke:#45d821;}.cls-8{fill:#dda036;stroke:#dda036;}.cls-9{fill:#ffe082;}.cls-10{fill:#6989ff;stroke:#6989ff;}.cls-11{fill:#4f4f4f;stroke:#4f4f4f;}.cls-12,.cls-14{fill:#8d6e63;}.cls-13{fill:#f57e17;stroke:#f57e17;}.cls-14{stroke:#8d6e63;}</style></defs><title>group-happy</title><g id="group-happy"><circle class="cls-1" cx="42" cy="15" r="13"/><path class="cls-2" d="M42,25A13,13,0,0,1,29.09,13.5a13,13,0,1,0,25.81,0A13,13,0,0,1,42,25Z"/><path class="cls-3" d="M38,18.28a5.5,5.5,0,0,0,4,1.51,5.52,5.52,0,0,0,4-1.49"/><circle class="cls-4" cx="34" cy="15" r="2"/><circle class="cls-4" cx="50" cy="15" r="2"/><circle class="cls-5" cx="48.5" cy="11.5" r="1.5"/><circle class="cls-5" cx="35.5" cy="11.5" r="1.5"/><path class="cls-6" d="M14,49H12a7,7,0,0,1-7-7V19a7,7,0,0,1,7-7H25"/><path class="cls-7" d="M56.63,56H50.5V51h-5v5H39.87C37.46,56,35,57.68,35,59.74V63H61V59.32C61,57.48,58.77,56,56.63,56Z"/><path class="cls-8" d="M57,47.5l.5-6.1A7.18,7.18,0,0,0,50.56,34H45.44a7.18,7.18,0,0,0-6.94,7.4l.5,6.1"/><path class="cls-9" d="M44.68,42.94c-5,0-5.68-4.33-5.68.48v4a11.86,11.86,0,0,0,2.76,7A8.21,8.21,0,0,0,48,57a8.21,8.21,0,0,0,6.24-2.5,11.86,11.86,0,0,0,2.76-7v-4C57,38.61,49.65,42.94,44.68,42.94Z"/><path class="cls-10" d="M47.63,56H41.5V51h-5v5H30.87C28.46,56,26,57.68,26,59.74V63H52V59.32C52,57.48,49.77,56,47.63,56Z"/><path class="cls-11" d="M48,47.5l.5-6.1A7.18,7.18,0,0,0,41.56,34H36.44a7.18,7.18,0,0,0-6.94,7.4l.5,6.1"/><path class="cls-12" d="M35.68,42.94c-5,0-5.68-4.33-5.68.48v4a11.86,11.86,0,0,0,2.76,7A8.21,8.21,0,0,0,39,57a8.21,8.21,0,0,0,6.24-2.5,11.86,11.86,0,0,0,2.76-7v-4C48,38.61,40.65,42.94,35.68,42.94Z"/><path class="cls-13" d="M38.63,56H32.5V51h-5v5H21.87C19.46,56,17,57.68,17,59.74V63H43V59.32C43,57.48,40.77,56,38.63,56Z"/><path class="cls-14" d="M39,47.5l.5-6.1A7.18,7.18,0,0,0,32.56,34H27.44a7.18,7.18,0,0,0-6.94,7.4l.5,6.1"/><path class="cls-9" d="M26.68,42.94c-5,0-5.68-4.33-5.68.48v4a11.86,11.86,0,0,0,2.76,7A8.21,8.21,0,0,0,30,57a8.21,8.21,0,0,0,6.24-2.5,11.86,11.86,0,0,0,2.76-7v-4C39,38.61,31.65,42.94,26.68,42.94Z"/></g></svg>